<svg xmlns="http://www.w3.org/2000/svg" viewBox="0 0 34 34"><defs><style>.cls-1{fill:#da4336;}.cls-2{fill:#ea7a72;}.cls-3{fill:#b7251d;}.cls-4{fill:#fbc730;}.cls-5{fill:#d31c1c;}.cls-6{fill:none;}</style></defs><title>ic_great_room_34</title><g id="Layer_2" data-name="Layer 2"><g id="Layer_1-2" data-name="Layer 1"><path class="cls-1" d="M7.51,16.53V9.28a3.62,3.62,0,0,1,3.62-3.62H22.87a3.62,3.62,0,0,1,3.62,3.62v7.26a3.62,3.62,0,0,1-3.62,3.62H11.13A3.62,3.62,0,0,1,7.51,16.53Z"/><path class="cls-2" d="M24.91,17H9.09a2.2,2.2,0,0,0,0,4.41H24.91a2.2,2.2,0,0,0,0-4.41Z"/><path class="cls-3" d="M6.37,23.17a2.08,2.08,0,0,1,2.07-2.07H25.58a2.07,2.07,0,0,1,0,4.13H8.43A2.08,2.08,0,0,1,6.37,23.17Z"/><circle class="cls-4" cx="19.38" cy="11.48" r="1.37"/><circle class="cls-4" cx="13.93" cy="11.48" r="1.37"/><path class="cls-5" d="M27.12,28.34a1.89,1.89,0,0,1-1.89-1.89V15.11a1.89,1.89,0,0,1,3.78,0V26.45A1.89,1.89,0,0,1,27.12,28.34Zm-20.23,0A1.89,1.89,0,0,1,5,26.45V15.11a1.89,1.89,0,0,1,3.78,0V26.45A1.89,1.89,0,0,1,6.88,28.34Z"/><rect class="cls-6" width="34" height="34"/></g></g></svg>