<svg xmlns="http://www.w3.org/2000/svg" viewBox="0 0 34 34"><defs><style>.cls-1{fill:none;}.cls-2{fill:#fff;}.cls-3{fill:#df392a;}.cls-4{fill:#f3b300;}.cls-5{fill:#b62825;}</style></defs><title>ic_great_service_34px</title><g id="Layer_2" data-name="Layer 2"><g id="Layer_1-2" data-name="Layer 1"><rect class="cls-1" width="34" height="34"/><path d="M23.87,29.78H10.32V25a6.77,6.77,0,0,1,13.55,0Z"/><path class="cls-2" d="M20.79,29.77H13.4v-7c0-2.6,1.65-4.7,3.7-4.7s3.7,2.1,3.7,4.7Z"/><path class="cls-3" d="M19.63,20.06l-2.11-.41a.72.72,0,0,1-.58-.71v-.21a.72.72,0,0,1,.58-.71l2.11-.41a.72.72,0,0,1,.86.71v1A.72.72,0,0,1,19.63,20.06Z"/><path class="cls-3" d="M14.36,20.06l2.11-.41a.72.72,0,0,0,.58-.71v-.21a.72.72,0,0,0-.58-.71l-2.11-.41a.72.72,0,0,0-.86.71v1A.72.72,0,0,0,14.36,20.06Z"/><circle cx="17" cy="21.9" r="0.5"/><circle cx="17" cy="24.75" r="0.5"/><circle cx="17" cy="27.61" r="0.5" transform="translate(-14.54 20.11) rotate(-45)"/><path class="cls-4" d="M21.42,8.81H12.78a5.08,5.08,0,1,0,8.64,0Z"/><rect x="12.82" y="4.22" width="8.61" height="3.59"/><rect x="12.82" y="4.22" width="8.61" height="3.59"/><circle class="cls-5" cx="17" cy="18.85" r="0.99"/></g></g></svg>